<?xml version="1.0" encoding="utf-8"?>
<!-- Generator: Adobe Illustrator 22.1.0, SVG Export Plug-In . SVG Version: 6.00 Build 0)  -->
<svg version="1.1" id="Layer_1" xmlns="http://www.w3.org/2000/svg" xmlns:xlink="http://www.w3.org/1999/xlink" x="0px" y="0px"
	 viewBox="0 0 204.2 37.4" style="enable-background:new 0 0 204.2 37.4;" xml:space="preserve">
<style type="text/css">
	.st0{fill:#0060D3;}
	.st1{fill:#FFFFFF;}
	.st2{fill:#031F4B;}
	.st3{enable-background:new    ;}
	.st4{fill:#ED1C24;}
</style>
<title>joberz_wnav_logo_2</title>
<g>
	<g>
		<g>
			<polygon class="st0" points="13.3,1.6 2,13 8.3,19.3 19.4,8.1 			"/>
		</g>
		<g>
			<polygon class="st1" points="49.1,13.3 37.7,1.9 31.4,8.2 42.5,19.3 			"/>
		</g>
		<g>
			<g>
				<g id="XMLID_106_">
					<g>
						<path class="st2" d="M50.3,12.7L38.5,0.9c-0.4-0.4-1-0.4-1.4,0c-0.4,0.4-0.4,1,0,1.4l11.1,11.1l-5,5c-0.2,0.2-0.4,0.2-0.5,0
							l-9.9-9.9c-0.2-0.2-0.2-0.4,0-0.5l5.7-5.7c0.4-0.4,0.4-1,0-1.4c-0.4-0.4-1-0.4-1.4,0l-5.7,5.7c-0.7,0.7-0.8,1.7-0.5,2.5
							l-1.1,1.1h-7.9l-1.5-1.4c0.1-0.2,0.1-0.4,0.1-0.6c0-0.6-0.2-1.2-0.7-1.6l-5.7-5.7c-0.4-0.4-1-0.4-1.4,0s-0.4,1,0,1.4L18.3,8
							c0.1,0.1,0.1,0.2,0.1,0.3c0,0.1,0,0.2-0.1,0.3L18,8.9l-9.6,9.6l0,0c-0.1,0.1-0.2,0.1-0.3,0.1c-0.1,0-0.2,0-0.3-0.1l-5-5
							L13.9,2.4c0.4-0.4,0.4-1,0-1.4c-0.4-0.4-1-0.4-1.4,0L0.9,12.7c-0.4,0.4-0.4,1,0,1.4l5.7,5.7c0.5,0.5,1,0.7,1.6,0.7
							c0.3,0,0.5,0,0.8-0.1l3.3,3.3c-0.2,0.5-0.4,1-0.4,1.5c0,1.8,1.5,3.4,3.4,3.4l0,0l0,0c0,1.8,1.5,3.4,3.4,3.4l0,0
							c0,1.8,1.5,3.4,3.4,3.4c0.6,0,1.1-0.1,1.5-0.4l1.2,1.2c0.6,0.6,1.3,0.9,2.1,0.9s1.5-0.3,2.1-0.9c0.5-0.5,0.8-1.2,0.9-1.9
							c0.7,0,1.4-0.3,2-0.9c0.6-0.6,0.9-1.3,0.9-2.1l0,0c0.8-0.1,1.6-0.4,2.2-1c0.6-0.6,0.9-1.4,0.9-2.2c0.8,0,1.6-0.3,2.1-0.9
							c0.6-0.6,0.9-1.4,0.9-2.2c0-0.5-0.1-1-0.3-1.4l3.3-2.9c0.4,0.3,0.9,0.4,1.3,0.4c0.6,0,1.2-0.2,1.6-0.7l5.7-5.7
							C50.6,13.7,50.6,13.1,50.3,12.7L50.3,12.7z"/>
					</g>
				</g>
				<g id="XMLID_103_">
					<path class="st2" d="M44.3,13.8c0,0.5-0.4,1-1,1c-0.5,0-1-0.4-1-1c0-0.6,0.4-1,1-1C43.9,12.9,44.3,13.3,44.3,13.8L44.3,13.8z"
						/>
				</g>
				<g id="XMLID_100_">
					<path class="st2" d="M8.6,13.9c0,0.5-0.4,1-1,1c-0.5,0-1-0.4-1-1c0-0.5,0.4-1,1-1C8.2,13,8.6,13.4,8.6,13.9L8.6,13.9z"/>
				</g>
				<g id="XMLID_97_">
					<path class="st2" d="M14.3,1.7c0,0.5-0.4,1-1,1c-0.5,0-1-0.4-1-1c0-0.5,0.4-1,1-1C13.9,0.8,14.3,1.2,14.3,1.7L14.3,1.7z"/>
				</g>
				<g id="XMLID_94_">
					<path class="st2" d="M38.7,1.6c0,0.5-0.4,1-1,1c-0.5,0-1-0.4-1-1c0-0.5,0.4-1,1-1C38.2,0.7,38.7,1.1,38.7,1.6L38.7,1.6z"/>
				</g>
			</g>
		</g>
		<g>
			<g id="XMLID_245_">
				<path class="st1" d="M15.2,26.5c-0.8,0-1.4-0.6-1.4-1.4s0.6-1.4,1.4-1.4s1.4,0.6,1.4,1.4C16.5,25.9,15.9,26.5,15.2,26.5
					L15.2,26.5z"/>
			</g>
			<g id="XMLID_244_">
				<path class="st1" d="M19.5,29.4l-0.1,0.1c-0.2,0.2-0.6,0.3-0.9,0.3c-0.8,0-1.4-0.6-1.4-1.4c0-0.8,0.6-1.4,1.4-1.4
					c0.8,0,1.4,0.6,1.4,1.4C19.8,28.8,19.7,29.2,19.5,29.4L19.5,29.4z"/>
			</g>
			<g id="XMLID_243_">
				<path class="st1" d="M22.8,32.7C22.8,32.7,22.8,32.8,22.8,32.7C22.8,32.8,22.8,32.8,22.8,32.7c-0.3,0.3-0.6,0.4-1,0.4
					c-0.8,0-1.4-0.6-1.4-1.4c0-0.3,0.1-0.7,0.3-0.9l0.1-0.1c0.2-0.2,0.6-0.3,0.9-0.3c0.8,0,1.4,0.6,1.4,1.4
					C23.2,32.2,23.1,32.5,22.8,32.7L22.8,32.7z"/>
			</g>
			<g id="XMLID_241_">
				<path class="st1" d="M36.4,25.3c-0.2,0.2-0.5,0.4-0.9,0.4c-0.3,0-0.6-0.1-0.9-0.4l-2-2c-0.4-0.4-1-0.4-1.4,0
					c-0.4,0.4-0.4,1,0,1.4l2,2l0,0l0,0c0.5,0.5,0.5,1.3,0,1.8C33,28.9,32.5,29,32.2,29c-0.4,0-0.7-0.1-0.9-0.4l-1.9-1.8
					c-0.4-0.4-1-0.3-1.4,0c-0.4,0.4-0.3,1,0,1.4l2.1,2c0.2,0.2,0.3,0.5,0.3,0.7c0,0.3-0.1,0.6-0.3,0.8c-0.4,0.4-1.1,0.4-1.5,0l-1-1
					c-0.4-0.4-1-0.4-1.4,0c-0.2,0.2-0.3,0.4-0.3,0.7c0,0.2,0.1,0.5,0.3,0.7l1,1c0.2,0.2,0.3,0.4,0.3,0.7c0,0.3-0.1,0.5-0.3,0.7
					c-0.2,0.2-0.4,0.3-0.7,0.3c-0.3,0-0.5-0.1-0.7-0.3l-0.9-1.2c0.2-0.5,0.4-1,0.4-1.5c0-1.8-1.5-3.4-3.4-3.4l0,0
					c0-1.8-1.5-3.4-3.4-3.4l0,0l0,0c0-1.8-1.5-3.4-3.4-3.4c-0.6,0-1.1,0.1-1.5,0.4l-3-3l8.6-8.6l1.5,1.5c0.2,0.2,0.4,0.3,0.7,0.3
					h1.2l-4,3.8c-0.6,0.6-0.9,1.4-0.9,2.2c0,0.8,0.3,1.6,0.9,2.2c0.6,0.6,1.4,0.9,2.2,0.9s1.6-0.3,2.2-0.9l3.3-3.3H30l6.3,6.3
					c0.2,0.2,0.4,0.5,0.4,0.9C36.8,24.8,36.6,25.1,36.4,25.3L36.4,25.3z"/>
			</g>
			<g id="XMLID_132_">
				<path class="st1" d="M37.1,21.5l-6-5.9l0,0c-0.2-0.2-0.5-0.3-0.8-0.3H26c-0.3,0-0.5,0.1-0.7,0.3l-3.6,3.5
					c-0.2,0.2-0.5,0.3-0.8,0.3s-0.6-0.1-0.8-0.3c-0.2-0.2-0.3-0.5-0.3-0.8s0.1-0.6,0.3-0.8l5.3-5.3h4.8c0.3,0,0.5-0.1,0.7-0.3
					l1.3-1.3l8,8L37.1,21.5z"/>
			</g>
		</g>
	</g>
	<g>
		<g>
			<g>
				<g class="st3">
					<path class="st0" d="M49.1,21.8h3.7V24c0,0.6,0.2,1.2,0.5,1.5c0.4,0.3,0.9,0.5,1.7,0.5c0.8,0,1.3-0.2,1.7-0.6
						c0.3-0.4,0.4-1.1,0.4-2.3v-11c0-0.5,0.2-1,0.6-1.4c0.4-0.4,0.9-0.6,1.4-0.6H61v13.1c0,1.2-0.1,2.1-0.2,2.6
						c-0.2,0.6-0.4,1.1-0.7,1.5c-0.5,0.6-1.2,1.1-2,1.4c-0.9,0.3-1.9,0.4-3,0.4c-1.2,0-2.1-0.1-2.8-0.4c-0.8-0.2-1.4-0.6-2-1.2
						c-0.5-0.5-0.8-1-0.9-1.5c-0.2-0.6-0.3-1.6-0.3-2.8V21.8z"/>
					<path class="st0" d="M64.4,27.4c-0.8-0.6-1.3-1.5-1.6-2.6c-0.3-1.1-0.5-2.2-0.5-3.4c0-1,0.1-1.9,0.4-2.9c0.3-1,0.7-1.8,1.3-2.4
						c0.9-1.1,2.1-1.7,3.6-1.9c1.5-0.2,2.8-0.1,4,0.4c1.4,0.5,2.4,1.5,3,2.8c0.6,1.2,0.9,2.6,0.9,4.2c0,1.2-0.1,2.1-0.4,3
						c-0.3,0.8-0.6,1.5-1,2.1c-0.9,1.2-2,1.9-3.3,2.2c-1.2,0.3-2.4,0.4-3.6,0.1C66.1,28.5,65.1,28.1,64.4,27.4z M67,17.9
						c-0.8,0.8-1.1,2.1-1,3.7c0.1,1.6,0.4,2.8,0.9,3.4c0.2,0.3,0.6,0.5,1.1,0.7c0.5,0.2,1.1,0.2,1.6,0.1c0.6-0.2,1.1-0.6,1.5-1.2
						c0.4-0.6,0.7-1.7,0.7-3.1c0-1.3-0.2-2.3-0.6-2.9c-0.4-0.6-0.9-1.1-1.4-1.2c-0.5-0.2-1.1-0.2-1.6,0S67.2,17.7,67,17.9z"/>
					<path class="st0" d="M80.8,11.9v4.3c0.4-0.7,1-1.2,1.7-1.7c0.6-0.4,1.4-0.5,2.4-0.5c1.7,0,3.1,0.7,4.2,2.1
						c1.1,1.4,1.6,3.2,1.6,5.4c0,2.2-0.5,4-1.6,5.4c-0.5,0.7-1.3,1.2-2.2,1.5C85.9,28.8,85,29,84.1,29c-1.7,0-3.3-0.4-4.8-1.3
						c-1.5-0.9-2.2-2.6-2.2-5.2V10.1h1.8c0.5,0,0.9,0.2,1.3,0.5C80.6,11,80.8,11.4,80.8,11.9z M86.9,21.4c0-1.3-0.3-2.3-0.8-3
						c-0.5-0.8-1.3-1.1-2.2-1.1c-1,0-1.8,0.4-2.3,1.1c-0.5,0.8-0.8,1.8-0.8,3.1c0,1.5,0.3,2.6,0.8,3.3c0.5,0.8,1.3,1.1,2.3,1.1
						c1,0,1.8-0.4,2.3-1.1S86.9,22.9,86.9,21.4z"/>
					<path class="st0" d="M102.3,24.3h2.7c-0.4,1.5-1.2,2.7-2.3,3.5c-1.1,0.8-2.5,1.2-4.2,1.2c-2,0-3.7-0.7-4.8-2
						c-1.2-1.3-1.7-3.1-1.7-5.6c0-2.3,0.6-4.1,1.7-5.4c1.2-1.3,2.8-2,4.8-2c2.2,0,3.8,0.6,5,1.9c1.2,1.3,1.7,3.2,1.7,5.6
						c0,0.1,0,0.3,0,0.4c0,0.1,0,0.2,0,0.2c0,0.2,0,0.3-0.1,0.4h-9.3c0,1.1,0.3,1.9,0.8,2.5c0.5,0.6,1.2,0.9,2.1,0.9
						c0.6,0,1.1-0.1,1.6-0.4c0.1,0,0.2-0.1,0.3-0.2c0.1-0.1,0.2-0.2,0.3-0.3c0-0.1,0.2-0.3,0.4-0.4
						C101.5,24.4,101.8,24.3,102.3,24.3z M95.8,20.1h5.5c-0.1-1-0.3-1.7-0.8-2.2c-0.5-0.5-1.1-0.8-2-0.8c-0.8,0-1.4,0.3-1.9,0.8
						C96.1,18.4,95.8,19.1,95.8,20.1z"/>
					<path class="st0" d="M106.8,28.7v-7c0-1.4,0.2-2.6,0.6-3.5c0.4-1,1-1.7,1.7-2.3c0.7-0.5,1.5-0.9,2.4-1.2
						c0.9-0.3,1.9-0.4,2.8-0.4c0.1,0,0.2,0,0.3,0c0.1,0,0.2,0,0.3,0v3.8h-1.2c-1,0-1.8,0.3-2.3,0.8c-0.5,0.5-0.8,1.3-0.8,2.4v7.4
						H106.8z"/>
					<path class="st0" d="M115.9,24h3.7c0,0.7,0.3,1.3,0.8,1.6c0.5,0.4,1.3,0.5,2.2,0.5c0.6,0,1.2-0.1,1.7-0.4
						c0.4-0.3,0.6-0.6,0.6-1c0-0.6-0.8-1.1-2.3-1.5c-0.6-0.1-1.1-0.2-1.5-0.3c-1.9-0.5-3.2-1-3.8-1.7c-0.7-0.6-1.1-1.5-1.1-2.6
						c0-1.4,0.5-2.5,1.6-3.4c1.1-0.8,2.5-1.2,4.2-1.2c1.9,0,3.4,0.4,4.5,1.2c1,0.9,1.6,2.1,1.7,3.5h-2.3c-0.7,0-1.2-0.3-1.6-0.9
						c-0.1-0.1-0.3-0.3-0.4-0.4c-0.4-0.3-1-0.5-1.8-0.5c-0.7,0-1.3,0.1-1.6,0.3c-0.3,0.2-0.5,0.5-0.5,1c0,0.6,0.9,1.1,2.8,1.5
						c0.2,0.1,0.4,0.1,0.6,0.2c0.2,0,0.3,0.1,0.5,0.1c1.8,0.5,3.1,1,3.8,1.6c0.7,0.6,1,1.5,1,2.6c0,1.6-0.6,2.8-1.7,3.7
						c-1.1,0.8-2.7,1.2-4.9,1.2c-2,0-3.6-0.4-4.6-1.2c-1-0.8-1.6-2-1.6-3.6V24z"/>
				</g>
				<g class="st3">
					<path class="st4" d="M134.3,27.4c-0.8-0.6-1.3-1.5-1.6-2.6c-0.3-1.1-0.5-2.2-0.5-3.4c0-1,0.1-1.9,0.4-2.9
						c0.3-1,0.7-1.8,1.3-2.4c0.9-1.1,2.1-1.7,3.6-1.9c1.5-0.2,2.8-0.1,4,0.4c1.4,0.5,2.4,1.5,3,2.8c0.6,1.2,0.9,2.6,0.9,4.2
						c0,1.2-0.1,2.1-0.4,3c-0.3,0.8-0.6,1.5-1,2.1c-0.9,1.2-2,1.9-3.3,2.2c-1.2,0.3-2.4,0.4-3.6,0.1C136,28.5,135,28.1,134.3,27.4z
						 M136.9,17.9c-0.8,0.8-1.1,2.1-1,3.7c0.1,1.6,0.4,2.8,0.9,3.4c0.2,0.3,0.6,0.5,1.1,0.7c0.5,0.2,1.1,0.2,1.6,0.1
						c0.6-0.2,1.1-0.6,1.5-1.2c0.4-0.6,0.7-1.7,0.7-3.1c0-1.3-0.2-2.3-0.6-2.9c-0.4-0.6-0.9-1.1-1.4-1.2c-0.5-0.2-1.1-0.2-1.6,0
						C137.6,17.5,137.2,17.7,136.9,17.9z"/>
					<path class="st4" d="M159.5,28.7h-1.9c-0.5,0-1-0.2-1.3-0.5c-0.3-0.3-0.5-0.8-0.5-1.3v-7.3c0-0.9-0.3-1.5-0.8-1.9
						c-0.5-0.4-1.1-0.6-1.8-0.6s-1.2,0.2-1.7,0.6c-0.5,0.4-0.8,1-0.8,1.9v9.2H147v-8.4c0-2.4,0.6-4.1,1.9-4.9
						c1.3-0.8,2.7-1.3,4.2-1.3c1.6,0,3,0.4,4.4,1.2c1.3,0.8,2,2.5,2,5V28.7z"/>
					<path class="st4" d="M161.3,10.2h1.9c0.5,0,0.9,0.2,1.3,0.5c0.4,0.3,0.5,0.8,0.5,1.3v16.8h-3.8V10.2z"/>
					<path class="st4" d="M167,10.2h1.9c0.5,0,0.9,0.2,1.3,0.5c0.4,0.4,0.5,0.8,0.5,1.3v1.1H167V10.2z M167,14.4h1.9
						c0.5,0,0.9,0.2,1.3,0.5c0.4,0.4,0.5,0.8,0.5,1.3v12.5H167V14.4z"/>
					<path class="st4" d="M184.5,28.7h-1.9c-0.5,0-1-0.2-1.3-0.5c-0.3-0.3-0.5-0.8-0.5-1.3v-7.3c0-0.9-0.3-1.5-0.8-1.9
						c-0.5-0.4-1.1-0.6-1.8-0.6s-1.2,0.2-1.7,0.6c-0.5,0.4-0.8,1-0.8,1.9v9.2H172v-8.4c0-2.4,0.6-4.1,1.9-4.9
						c1.3-0.8,2.7-1.3,4.2-1.3c1.6,0,3,0.4,4.4,1.2c1.3,0.8,2,2.5,2,5V28.7z"/>
					<path class="st4" d="M196,24.3h2.7c-0.4,1.5-1.2,2.7-2.3,3.5c-1.1,0.8-2.5,1.2-4.2,1.2c-2,0-3.7-0.7-4.8-2
						c-1.2-1.3-1.7-3.1-1.7-5.6c0-2.3,0.6-4.1,1.7-5.4c1.2-1.3,2.8-2,4.8-2c2.2,0,3.8,0.6,5,1.9c1.2,1.3,1.7,3.2,1.7,5.6
						c0,0.1,0,0.3,0,0.4c0,0.1,0,0.2,0,0.2c0,0.2,0,0.3-0.1,0.4h-9.3c0,1.1,0.3,1.9,0.8,2.5c0.5,0.6,1.2,0.9,2.1,0.9
						c0.6,0,1.1-0.1,1.6-0.4c0.1,0,0.2-0.1,0.3-0.2c0.1-0.1,0.2-0.2,0.3-0.3c0-0.1,0.2-0.3,0.4-0.4C195.3,24.4,195.6,24.3,196,24.3z
						 M189.6,20.1h5.5c-0.1-1-0.3-1.7-0.8-2.2c-0.5-0.5-1.1-0.8-2-0.8c-0.8,0-1.4,0.3-1.9,0.8C189.9,18.4,189.6,19.1,189.6,20.1z"/>
				</g>
			</g>
		</g>
	</g>
</g>
</svg>
